<mxfile host="app.diagrams.net" modified="2022-05-05T09:45:02.352Z" agent="5.0 (Windows NT 10.0; Win64; x64) AppleWebKit/537.36 (KHTML, like Gecko) Chrome/101.0.4951.41 Safari/537.36" etag="EewDOg3sjx0-joVuAv5E" version="18.0.0" type="github">
  <diagram id="ghcUfPf-tJmSUkZoqm0j" name="Page-1">
    <mxGraphModel dx="1209" dy="773" grid="1" gridSize="10" guides="1" tooltips="1" connect="1" arrows="1" fold="1" page="1" pageScale="1" pageWidth="827" pageHeight="1169" math="0" shadow="0">
      <root>
        <mxCell id="0" />
        <mxCell id="1" parent="0" />
        <mxCell id="dAincey384vPkBa2ydyc-23" style="edgeStyle=orthogonalEdgeStyle;rounded=0;orthogonalLoop=1;jettySize=auto;html=1;exitX=0.5;exitY=1;exitDx=0;exitDy=0;entryX=0.5;entryY=0;entryDx=0;entryDy=0;fontFamily=Helvetica;endArrow=none;endFill=0;fontSize=20;" parent="1" source="dAincey384vPkBa2ydyc-1" target="dAincey384vPkBa2ydyc-3" edge="1">
          <mxGeometry relative="1" as="geometry" />
        </mxCell>
        <mxCell id="dAincey384vPkBa2ydyc-1" value="面向区块链应用的用户身份认证与授权工具" style="rounded=1;whiteSpace=wrap;html=1;fontSize=20;" parent="1" vertex="1">
          <mxGeometry x="260" y="60" width="250" height="60" as="geometry" />
        </mxCell>
        <mxCell id="dAincey384vPkBa2ydyc-25" style="edgeStyle=orthogonalEdgeStyle;rounded=0;orthogonalLoop=1;jettySize=auto;html=1;exitX=0.5;exitY=0;exitDx=0;exitDy=0;entryX=0.5;entryY=1;entryDx=0;entryDy=0;fontFamily=Helvetica;endArrow=none;endFill=0;fontSize=20;" parent="1" source="dAincey384vPkBa2ydyc-2" target="dAincey384vPkBa2ydyc-1" edge="1">
          <mxGeometry relative="1" as="geometry" />
        </mxCell>
        <mxCell id="dAincey384vPkBa2ydyc-2" value="区块链子模块" style="rounded=1;whiteSpace=wrap;html=1;fontSize=20;" parent="1" vertex="1">
          <mxGeometry x="80" y="190" width="130" height="60" as="geometry" />
        </mxCell>
        <mxCell id="dAincey384vPkBa2ydyc-3" value="分布式可信身份管理子模块" style="rounded=1;whiteSpace=wrap;html=1;fontSize=20;" parent="1" vertex="1">
          <mxGeometry x="307.5" y="190" width="155" height="60" as="geometry" />
        </mxCell>
        <mxCell id="dAincey384vPkBa2ydyc-24" style="edgeStyle=orthogonalEdgeStyle;rounded=0;orthogonalLoop=1;jettySize=auto;html=1;exitX=0.5;exitY=0;exitDx=0;exitDy=0;fontFamily=Helvetica;endArrow=none;endFill=0;fontSize=20;" parent="1" source="dAincey384vPkBa2ydyc-4" target="dAincey384vPkBa2ydyc-1" edge="1">
          <mxGeometry relative="1" as="geometry" />
        </mxCell>
        <mxCell id="yx5_RM5pmbJ3CRORuYup-3" style="edgeStyle=orthogonalEdgeStyle;rounded=0;sketch=0;orthogonalLoop=1;jettySize=auto;html=1;exitX=0.5;exitY=1;exitDx=0;exitDy=0;fontSize=20;endArrow=none;endFill=0;" edge="1" parent="1" source="dAincey384vPkBa2ydyc-4" target="yx5_RM5pmbJ3CRORuYup-1">
          <mxGeometry relative="1" as="geometry" />
        </mxCell>
        <mxCell id="dAincey384vPkBa2ydyc-4" value="链码级权限管理子模块" style="rounded=1;whiteSpace=wrap;html=1;fontSize=20;" parent="1" vertex="1">
          <mxGeometry x="570" y="190" width="120" height="60" as="geometry" />
        </mxCell>
        <mxCell id="ghlnTZ6Yw8bAaXHbQsck-3" style="edgeStyle=orthogonalEdgeStyle;rounded=0;orthogonalLoop=1;jettySize=auto;html=1;exitX=0.5;exitY=0;exitDx=0;exitDy=0;entryX=0.5;entryY=1;entryDx=0;entryDy=0;fontSize=20;endArrow=none;endFill=0;" parent="1" source="dAincey384vPkBa2ydyc-5" target="dAincey384vPkBa2ydyc-2" edge="1">
          <mxGeometry relative="1" as="geometry" />
        </mxCell>
        <mxCell id="dAincey384vPkBa2ydyc-5" value="智能合约" style="rounded=1;whiteSpace=wrap;html=1;imageWidth=24;imageHeight=24;fontSize=20;flipH=1;" parent="1" vertex="1">
          <mxGeometry x="55" y="320" width="30" height="180" as="geometry" />
        </mxCell>
        <mxCell id="ghlnTZ6Yw8bAaXHbQsck-4" style="edgeStyle=orthogonalEdgeStyle;rounded=0;orthogonalLoop=1;jettySize=auto;html=1;exitX=0.5;exitY=0;exitDx=0;exitDy=0;entryX=0.5;entryY=1;entryDx=0;entryDy=0;fontSize=20;endArrow=none;endFill=0;" parent="1" source="dAincey384vPkBa2ydyc-6" target="dAincey384vPkBa2ydyc-2" edge="1">
          <mxGeometry relative="1" as="geometry" />
        </mxCell>
        <mxCell id="dAincey384vPkBa2ydyc-6" value="数据上链" style="rounded=1;whiteSpace=wrap;html=1;imageWidth=24;imageHeight=24;fontSize=20;flipH=1;" parent="1" vertex="1">
          <mxGeometry x="105" y="320" width="30" height="180" as="geometry" />
        </mxCell>
        <mxCell id="ghlnTZ6Yw8bAaXHbQsck-5" style="edgeStyle=orthogonalEdgeStyle;rounded=0;orthogonalLoop=1;jettySize=auto;html=1;exitX=0.5;exitY=0;exitDx=0;exitDy=0;entryX=0.5;entryY=1;entryDx=0;entryDy=0;fontSize=20;endArrow=none;endFill=0;" parent="1" source="dAincey384vPkBa2ydyc-7" target="dAincey384vPkBa2ydyc-2" edge="1">
          <mxGeometry relative="1" as="geometry" />
        </mxCell>
        <mxCell id="dAincey384vPkBa2ydyc-7" value="节点接入" style="rounded=1;whiteSpace=wrap;html=1;imageWidth=24;imageHeight=24;fontSize=20;flipH=1;" parent="1" vertex="1">
          <mxGeometry x="155" y="320" width="30" height="180" as="geometry" />
        </mxCell>
        <mxCell id="ghlnTZ6Yw8bAaXHbQsck-6" style="edgeStyle=orthogonalEdgeStyle;rounded=0;orthogonalLoop=1;jettySize=auto;html=1;exitX=0.5;exitY=0;exitDx=0;exitDy=0;fontSize=20;endArrow=none;endFill=0;" parent="1" source="dAincey384vPkBa2ydyc-8" target="dAincey384vPkBa2ydyc-2" edge="1">
          <mxGeometry relative="1" as="geometry" />
        </mxCell>
        <mxCell id="dAincey384vPkBa2ydyc-8" value="账本查询接口" style="rounded=1;whiteSpace=wrap;html=1;imageWidth=24;imageHeight=24;fontSize=20;flipH=1;" parent="1" vertex="1">
          <mxGeometry x="205" y="320" width="30" height="180" as="geometry" />
        </mxCell>
        <mxCell id="ghlnTZ6Yw8bAaXHbQsck-8" style="edgeStyle=orthogonalEdgeStyle;rounded=0;orthogonalLoop=1;jettySize=auto;html=1;exitX=0.5;exitY=0;exitDx=0;exitDy=0;fontSize=20;endArrow=none;endFill=0;" parent="1" source="dAincey384vPkBa2ydyc-9" target="dAincey384vPkBa2ydyc-3" edge="1">
          <mxGeometry relative="1" as="geometry" />
        </mxCell>
        <mxCell id="dAincey384vPkBa2ydyc-9" value="DID标识生成" style="rounded=1;whiteSpace=wrap;html=1;fontFamily=Helvetica;imageWidth=24;imageHeight=24;fontSize=20;flipH=1;" parent="1" vertex="1">
          <mxGeometry x="310" y="320" width="30" height="180" as="geometry" />
        </mxCell>
        <mxCell id="ghlnTZ6Yw8bAaXHbQsck-7" style="edgeStyle=orthogonalEdgeStyle;rounded=0;orthogonalLoop=1;jettySize=auto;html=1;exitX=0.5;exitY=0;exitDx=0;exitDy=0;entryX=0.5;entryY=1;entryDx=0;entryDy=0;fontSize=20;endArrow=none;endFill=0;" parent="1" source="dAincey384vPkBa2ydyc-10" target="dAincey384vPkBa2ydyc-3" edge="1">
          <mxGeometry relative="1" as="geometry" />
        </mxCell>
        <mxCell id="dAincey384vPkBa2ydyc-10" value="可信身份发证方" style="rounded=1;whiteSpace=wrap;html=1;fontFamily=Helvetica;imageWidth=24;imageHeight=24;fontSize=20;flipH=1;" parent="1" vertex="1">
          <mxGeometry x="370" y="320" width="30" height="180" as="geometry" />
        </mxCell>
        <mxCell id="ghlnTZ6Yw8bAaXHbQsck-9" style="edgeStyle=orthogonalEdgeStyle;rounded=0;orthogonalLoop=1;jettySize=auto;html=1;exitX=0.5;exitY=0;exitDx=0;exitDy=0;fontSize=20;endArrow=none;endFill=0;" parent="1" source="dAincey384vPkBa2ydyc-11" target="dAincey384vPkBa2ydyc-3" edge="1">
          <mxGeometry relative="1" as="geometry" />
        </mxCell>
        <mxCell id="dAincey384vPkBa2ydyc-11" value="身份凭证验证方" style="rounded=1;whiteSpace=wrap;html=1;fontFamily=Helvetica;imageWidth=24;imageHeight=24;fontSize=20;flipH=1;" parent="1" vertex="1">
          <mxGeometry x="429.5" y="320" width="30" height="180" as="geometry" />
        </mxCell>
        <mxCell id="ghlnTZ6Yw8bAaXHbQsck-12" style="edgeStyle=orthogonalEdgeStyle;rounded=0;orthogonalLoop=1;jettySize=auto;html=1;exitX=0.5;exitY=0;exitDx=0;exitDy=0;entryX=0.5;entryY=1;entryDx=0;entryDy=0;fontSize=20;endArrow=none;endFill=0;" parent="1" source="dAincey384vPkBa2ydyc-14" target="dAincey384vPkBa2ydyc-4" edge="1">
          <mxGeometry relative="1" as="geometry" />
        </mxCell>
        <mxCell id="dAincey384vPkBa2ydyc-14" value="用户管理" style="rounded=1;whiteSpace=wrap;html=1;fontFamily=Helvetica;imageWidth=24;imageHeight=24;fontSize=20;" parent="1" vertex="1">
          <mxGeometry x="540" y="320" width="30" height="180" as="geometry" />
        </mxCell>
        <mxCell id="ghlnTZ6Yw8bAaXHbQsck-10" style="edgeStyle=orthogonalEdgeStyle;rounded=0;orthogonalLoop=1;jettySize=auto;html=1;exitX=0.5;exitY=0;exitDx=0;exitDy=0;entryX=0.5;entryY=1;entryDx=0;entryDy=0;fontSize=20;endArrow=none;endFill=0;" parent="1" source="dAincey384vPkBa2ydyc-15" target="dAincey384vPkBa2ydyc-4" edge="1">
          <mxGeometry relative="1" as="geometry" />
        </mxCell>
        <mxCell id="dAincey384vPkBa2ydyc-15" value="角色管理" style="rounded=1;whiteSpace=wrap;html=1;fontFamily=Helvetica;imageWidth=24;imageHeight=24;fontSize=20;" parent="1" vertex="1">
          <mxGeometry x="590" y="320" width="30" height="180" as="geometry" />
        </mxCell>
        <mxCell id="ghlnTZ6Yw8bAaXHbQsck-11" style="edgeStyle=orthogonalEdgeStyle;rounded=0;orthogonalLoop=1;jettySize=auto;html=1;exitX=0.5;exitY=0;exitDx=0;exitDy=0;entryX=0.5;entryY=1;entryDx=0;entryDy=0;fontSize=20;endArrow=none;endFill=0;" parent="1" source="dAincey384vPkBa2ydyc-16" target="dAincey384vPkBa2ydyc-4" edge="1">
          <mxGeometry relative="1" as="geometry" />
        </mxCell>
        <mxCell id="dAincey384vPkBa2ydyc-16" value="链码接口管理" style="rounded=1;whiteSpace=wrap;html=1;fontFamily=Helvetica;imageWidth=24;imageHeight=24;fontSize=20;" parent="1" vertex="1">
          <mxGeometry x="640" y="320" width="30" height="180" as="geometry" />
        </mxCell>
        <mxCell id="yx5_RM5pmbJ3CRORuYup-1" value="用户授权与鉴权" style="rounded=1;whiteSpace=wrap;html=1;sketch=0;fontSize=20;" vertex="1" parent="1">
          <mxGeometry x="690" y="320" width="30.5" height="180" as="geometry" />
        </mxCell>
      </root>
    </mxGraphModel>
  </diagram>
</mxfile>
